<svg width="28" height="28" viewBox="0 0 28 28" version="1.1" xmlns="http://www.w3.org/2000/svg" xmlns:xlink="http://www.w3.org/1999/xlink">
<title>Page 1.svg</title>
<desc>Created using Figma</desc>
<g id="Canvas" transform="translate(-8837 -439)">
<g id="Page 1">
<g id="Stroke 1">
<use xlink:href="#path0_stroke" transform="translate(8839.58 460.324)" fill="#818FA4"/>
</g>
<g id="Stroke 3">
<use xlink:href="#path1_stroke" transform="translate(8856.98 458.218)" fill="#818FA4"/>
</g>
<g id="Stroke 5">
<use xlink:href="#path2_stroke" transform="translate(8838.28 458.975)" fill="#818FA4"/>
</g>
<g id="Stroke 7">
<use xlink:href="#path3_stroke" transform="translate(8844.07 457.85)" fill="#818FA4"/>
</g>
<g id="Stroke 9">
<use xlink:href="#path4_stroke" transform="translate(8850.82 440.23)" fill="#818FA4"/>
</g>
<g id="Stroke 11">
<use xlink:href="#path5_stroke" transform="translate(8842.65 440.276)" fill="#818FA4"/>
</g>
</g>
</g>
<defs>
<path id="path0_stroke" d="M 0.522456 1.04005L 0.499877 0.54056L 0.499743 0.540566L 0.522456 1.04005ZM 23.5166 0.000603469L 23.5391 0.500093L 23.5395 0.500079L 23.5166 0.000603469ZM 24.027 0.809923L 24.4706 1.04046L 24.4707 1.04033L 24.027 0.809923ZM 22.0496 4.61533L 22.4933 4.8459L 22.4933 4.84587L 22.0496 4.61533ZM 21.0289 4.73767L 0.548799 4.73767L 0.548799 5.73767L 21.0289 5.73767L 21.0289 4.73767ZM 0.548799 4.73767C 0.525755 4.73767 0.5 4.71746 0.5 4.68448L -0.5 4.68448C -0.5 5.26221 -0.0340312 5.73767 0.548799 5.73767L 0.548799 4.73767ZM 0.5 4.68448L 0.5 1.59048L -0.5 1.59048L -0.5 4.68448L 0.5 4.68448ZM 0.5 1.59048C 0.5 1.56039 0.523326 1.54053 0.54517 1.53953L 0.499743 0.540566C -0.0623351 0.566126 -0.5 1.03196 -0.5 1.59048L 0.5 1.59048ZM 0.545036 1.53954L 23.5391 0.500093L 23.494 -0.498886L 0.499877 0.54056L 0.545036 1.53954ZM 23.5395 0.500079C 23.5518 0.499515 23.5581 0.502037 23.5623 0.504342C 23.5679 0.507418 23.575 0.513348 23.581 0.522893C 23.587 0.532434 23.5899 0.542325 23.5904 0.55063C 23.5908 0.557436 23.59 0.566506 23.5832 0.579513L 24.4707 1.04033C 24.8409 0.327276 24.309 -0.53623 23.4937 -0.498873L 23.5395 0.500079ZM 23.5833 0.579383L 21.6059 4.38479L 22.4933 4.84587L 24.4706 1.04046L 23.5833 0.579383ZM 21.606 4.38475C 21.4927 4.60274 21.2695 4.73767 21.0289 4.73767L 21.0289 5.73767C 21.6455 5.73767 22.2093 5.39242 22.4933 4.8459L 21.606 4.38475Z"/>
<path id="path1_stroke" d="M 4.45264 0.000570027L 4.43061 -0.498945L 4.42968 -0.498903L 4.45264 0.000570027ZM 4.96766 0.809889L 4.52481 0.577765L 4.52474 0.577886L 4.96766 0.809889ZM 0.02296 0.704723L 4.4756 0.500043L 4.42968 -0.498903L -0.02296 -0.294222L 0.02296 0.704723ZM 4.47467 0.500085C 4.51685 0.498224 4.5434 0.542301 4.52481 0.577765L 5.41051 1.04201C 5.78801 0.321818 5.24145 -0.534701 4.43061 -0.498945L 4.47467 0.500085ZM 4.52474 0.577886L 4.33002 0.949631L 5.21585 1.41364L 5.41058 1.04189L 4.52474 0.577886Z"/>
<path id="path2_stroke" d="M 0.528298 0.283234L 0.550747 0.78273L 0.55127 0.782706L 0.528298 0.283234ZM 1.05991 3.98085L 0.553191 3.98085L 0.553191 4.98085L 1.05991 4.98085L 1.05991 3.98085ZM 0.553191 3.98085C 0.523972 3.98085 0.5 3.95688 0.5 3.92766L -0.5 3.92766C -0.5 4.50916 -0.0283128 4.98085 0.553191 4.98085L 0.553191 3.98085ZM 0.5 3.92766L 0.5 0.835872L -0.5 0.835872L -0.5 3.92766L 0.5 3.92766ZM 0.5 0.835872C 0.5 0.807402 0.522412 0.784003 0.550747 0.78273L 0.505849 -0.216262C -0.0566245 -0.190982 -0.5 0.272428 -0.5 0.835872L 0.5 0.835872ZM 0.55127 0.782706L 6.7094 0.499472L 6.66345 -0.499472L 0.505325 -0.216238L 0.55127 0.782706Z"/>
<path id="path3_stroke" d="M 14.4754 2.66455L 14.4984 3.16402L 15.8915 3.09971L 14.7749 2.26422L 14.4754 2.66455ZM 0 3.3328L -0.391116 3.02131L -1.07745 3.88308L 0.023058 3.83227L 0 3.3328ZM 2.26587 0.48774L 1.87481 0.176175L 1.87476 0.176246L 2.26587 0.48774ZM 2.81906 0.211697L 2.80543 -0.288117L 2.805 -0.288105L 2.81906 0.211697ZM 10.566 0.000378167L 10.5796 0.500192L 10.5799 0.500183L 10.566 0.000378167ZM 11.1723 0.192889L 10.8723 0.592889L 10.8727 0.593218L 11.1723 0.192889ZM 14.4523 2.16508L -0.023058 2.83334L 0.023058 3.83227L 14.4984 3.16402L 14.4523 2.16508ZM 0.391116 3.6443L 2.65699 0.799233L 1.87476 0.176246L -0.391116 3.02131L 0.391116 3.6443ZM 2.65693 0.799305C 2.69954 0.74582 2.76407 0.713442 2.83312 0.7115L 2.805 -0.288105C 2.44147 -0.277878 2.10105 -0.107787 1.87481 0.176175L 2.65693 0.799305ZM 2.8327 0.711511L 10.5796 0.500192L 10.5523 -0.499436L 2.80543 -0.288117L 2.8327 0.711511ZM 10.5799 0.500183C 10.7146 0.489463 10.7689 0.506471 10.8723 0.592889L 11.4723 -0.207111C 11.226 -0.382907 10.8532 -0.500877 10.552 -0.499427L 10.5799 0.500183ZM 10.8727 0.593218L 14.1758 3.06488L 14.7749 2.26422L 11.4718 -0.207441L 10.8727 0.593218Z"/>
<path id="path4_stroke" d="M -0.269277 -0.00647501L -0.499958 17.8052L 0.499958 17.8181L 0.730639 0.00647501L -0.269277 -0.00647501Z"/>
<path id="path5_stroke" d="M 16.3016 15.0009L 15.8519 15.2192L 15.8556 15.2269L 15.8596 15.2345L 16.3016 15.0009ZM 9.21335 0.401021L 8.76142 0.614981L 8.76356 0.619397L 9.21335 0.401021ZM 7.8718 0.263276L 7.49505 -0.0654384L 7.45689 -0.0217092L 7.42977 0.0295962L 7.8718 0.263276ZM 0.136398 14.8957L 0.513211 15.2244L 0.551329 15.1807L 0.578432 15.1294L 0.136398 14.8957ZM 0.837042 16.3583L 15.5177 16.3583L 15.5177 15.3583L 0.837042 15.3583L 0.837042 16.3583ZM 15.5177 16.3583C 15.9339 16.3583 16.3259 16.2024 16.5829 15.9213C 16.8512 15.6279 16.9663 15.1883 16.7437 14.7672L 15.8596 15.2345C 15.864 15.2429 15.8595 15.2367 15.8615 15.2248C 15.8628 15.2168 15.864 15.2256 15.8449 15.2465C 15.804 15.2913 15.6952 15.3583 15.5177 15.3583L 15.5177 16.3583ZM 16.7514 14.7825L 9.66314 0.182645L 8.76356 0.619397L 15.8519 15.2192L 16.7514 14.7825ZM 9.66526 0.187071C 9.4601 -0.24629 9.02908 -0.452863 8.64395 -0.492383C 8.25644 -0.532149 7.80175 -0.416972 7.49505 -0.0654384L 8.24856 0.59199C 8.2966 0.536928 8.40243 0.488084 8.54187 0.502393C 8.6837 0.516946 8.74609 0.582544 8.76144 0.61497L 9.66526 0.187071ZM 7.42977 0.0295962L -0.305635 14.6621L 0.578432 15.1294L 8.31384 0.496956L 7.42977 0.0295962ZM -0.240414 14.5671C -0.583423 14.9604 -0.568223 15.4605 -0.301688 15.8266C -0.0543498 16.1665 0.374486 16.3583 0.837042 16.3583L 0.837042 15.3583C 0.636567 15.3583 0.534389 15.276 0.506818 15.2382C 0.49459 15.2214 0.500385 15.2204 0.499983 15.2349C 0.499494 15.2524 0.491437 15.2494 0.513211 15.2244L -0.240414 14.5671Z"/>
</defs>
</svg>
