<svg width="12" height="17" viewBox="0 0 12 17" version="1.1" xmlns="http://www.w3.org/2000/svg" xmlns:xlink="http://www.w3.org/1999/xlink">
<title>@$&#9;</title>
<desc>Created using Figma</desc>
<g id="Canvas" transform="translate(-8644 -106)">
<g id="big-map-placeholder" opacity="0.8">
<mask id="mask0_outline_ins">
<use xlink:href="#path0_fill" fill="white" transform="translate(8644 106)"/>
</mask>
<g mask="url(#mask0_outline_ins)">
<use xlink:href="#path1_stroke_2x" transform="translate(8644 106)" fill="#818FA4"/>
</g>
</g>
</g>
<defs>
<path id="path0_fill" fill-rule="evenodd" d="M 6 0C 2.6821 0 0 2.65973 0 5.94857C 0 10.4118 6 17 6 17C 6 17 12 10.4118 12 5.94857C 12 2.65973 9.3179 0 6 0ZM 5.99984 8.07361C 4.8159 8.07361 3.85645 7.12221 3.85645 5.94857C 3.85645 4.77765 4.8159 3.82358 5.99984 3.82358C 7.18361 3.82358 8.14319 4.77765 8.14319 5.94857C 8.14319 7.12302 7.18361 8.07361 5.99984 8.07361Z"/>
<path id="path1_stroke_2x" d="M 6 17L 5.26066 17.6733L 6 18.4851L 6.73934 17.6733L 6 17ZM 6 -1C 2.13788 -1 -1 2.09942 -1 5.94857L 1 5.94857C 1 3.22005 3.22632 1 6 1L 6 -1ZM -1 5.94857C -1 8.51989 0.678699 11.5136 2.17318 13.7105C 2.9417 14.8393 3.71852 15.8374 4.2886 16.5342C 4.57634 16.8857 4.82023 17.1717 4.98725 17.364C 5.07204 17.4616 5.14058 17.5392 5.18585 17.59C 5.2091 17.6161 5.22784 17.637 5.23982 17.6503C 5.24611 17.6573 5.25133 17.663 5.25452 17.6666C 5.25626 17.6685 5.2578 17.6702 5.25868 17.6712C 5.25919 17.6717 5.25969 17.6723 5.25994 17.6725C 5.26011 17.6727 5.26029 17.6729 5.26037 17.673C 5.26053 17.6732 5.26066 17.6733 6 17C 6.73934 16.3267 6.73943 16.3268 6.73949 16.3268C 6.73948 16.3268 6.73953 16.3269 6.73951 16.3269C 6.7394 16.3267 6.73935 16.3267 6.73914 16.3264C 6.73856 16.3258 6.73792 16.3251 6.73678 16.3238C 6.7342 16.321 6.73082 16.3173 6.72576 16.3116C 6.71503 16.2997 6.70008 16.2831 6.67939 16.2598C 6.63676 16.212 6.57639 16.1437 6.49712 16.0524C 6.33602 15.867 6.11116 15.6034 5.8364 15.2676C 5.28149 14.5896 4.5583 13.6617 3.82682 12.5855C 2.3213 10.3725 1 7.84053 1 5.94857L -1 5.94857ZM 6 17C 6.73934 17.6733 6.73947 17.6732 6.73963 17.673C 6.73971 17.6729 6.73989 17.6727 6.74006 17.6725C 6.74031 17.6723 6.74081 17.6717 6.74132 17.6712C 6.7422 17.6702 6.74374 17.6685 6.74548 17.6666C 6.74867 17.663 6.75389 17.6573 6.76018 17.6503C 6.77216 17.637 6.7909 17.6161 6.81415 17.59C 6.85942 17.5392 6.92796 17.4616 7.01275 17.364C 7.17977 17.1717 7.42366 16.8857 7.7114 16.5342C 8.28148 15.8374 9.0583 14.8393 9.82682 13.7105C 11.3213 11.5136 13 8.51989 13 5.94857L 11 5.94857C 11 7.84053 9.6787 10.3725 8.17318 12.5855C 7.4417 13.6617 6.71851 14.5896 6.1636 15.2676C 5.88884 15.6034 5.66398 15.867 5.50288 16.0524C 5.42361 16.1437 5.36324 16.212 5.32061 16.2598C 5.29992 16.2831 5.28497 16.2997 5.27424 16.3116C 5.26918 16.3173 5.2658 16.321 5.26322 16.3238C 5.26208 16.3251 5.26144 16.3258 5.26086 16.3264C 5.26065 16.3267 5.2606 16.3267 5.26049 16.3269C 5.26047 16.3269 5.26052 16.3268 5.26051 16.3268C 5.26057 16.3268 5.26066 16.3267 6 17ZM 13 5.94857C 13 2.09942 9.86212 -1 6 -1L 6 1C 8.77368 1 11 3.22005 11 5.94857L 13 5.94857ZM 5.99984 7.07361C 5.36011 7.07361 4.85645 6.56188 4.85645 5.94857L 2.85645 5.94857C 2.85645 7.68253 4.2717 9.07361 5.99984 9.07361L 5.99984 7.07361ZM 4.85645 5.94857C 4.85645 5.33718 5.36092 4.82358 5.99984 4.82358L 5.99984 2.82358C 4.27089 2.82358 2.85645 4.21813 2.85645 5.94857L 4.85645 5.94857ZM 5.99984 4.82358C 6.63862 4.82358 7.14319 5.3372 7.14319 5.94857L 9.14319 5.94857C 9.14319 4.2181 7.7286 2.82358 5.99984 2.82358L 5.99984 4.82358ZM 7.14319 5.94857C 7.14319 6.56242 6.63968 7.07361 5.99984 7.07361L 5.99984 9.07361C 7.72754 9.07361 9.14319 7.68362 9.14319 5.94857L 7.14319 5.94857Z"/>
</defs>
</svg>
