<svg width="43" height="16" viewBox="0 0 43 16" version="1.1" xmlns="http://www.w3.org/2000/svg" xmlns:xlink="http://www.w3.org/1999/xlink">
<title>Page 1.svg</title>
<desc>Created using Figma</desc>
<g id="Canvas" transform="translate(-8921 -449)">
<g id="Page 1">
<g id="Stroke 1">
<use xlink:href="#path0_stroke" transform="translate(8927.65 454.468)" fill="#818FA4"/>
</g>
<g id="Group 6">
<g id="Stroke 2">
<use xlink:href="#path1_stroke" transform="translate(8934.08 450.312)" fill="#818FA4"/>
</g>
<g id="Stroke 4">
<use xlink:href="#path2_stroke" transform="translate(8922.53 457.064)" fill="#818FA4"/>
</g>
</g>
<g id="Fill 7">
<use xlink:href="#path3_fill" transform="translate(8933.05 456.718)" fill="#858E97"/>
</g>
<g id="Stroke 8">
<use xlink:href="#path4_stroke" transform="translate(8933.05 456.718)" fill="#858E97"/>
</g>
<g id="Fill 9">
<use xlink:href="#path5_fill" transform="translate(8940.62 456.718)" fill="#858E97"/>
</g>
<g id="Stroke 10">
<use xlink:href="#path4_stroke" transform="translate(8940.62 456.718)" fill="#858E97"/>
</g>
<g id="Fill 11">
<use xlink:href="#path5_fill" transform="translate(8936.83 452.343)" fill="#858E97"/>
</g>
<g id="Stroke 12">
<use xlink:href="#path4_stroke" transform="translate(8936.83 452.343)" fill="#858E97"/>
</g>
</g>
</g>
<defs>
<path id="path0_stroke" d="M 24.8725 5.08813L 24.8725 5.58813L 25.1185 5.58813L 25.2686 5.39323L 24.8725 5.08813ZM 0 5.08813L -0.44795 4.866L -0.806036 5.58813L 0 5.58813L 0 5.08813ZM 2.52308 0L 2.52315 -0.5L 2.21294 -0.500045L 2.07513 -0.222128L 2.52308 0ZM 28.2629 0.00375L 28.642 -0.322194L 28.4924 -0.496217L 28.2629 -0.49625L 28.2629 0.00375ZM 30.4706 2.57188L 30.474 3.07186L 31.5534 3.06453L 30.8497 2.24593L 30.4706 2.57188ZM 26.7913 2.59687L 26.7879 2.09689L 26.544 2.09854L 26.3952 2.29177L 26.7913 2.59687ZM 24.8725 4.58813L 0 4.58813L 0 5.58813L 24.8725 5.58813L 24.8725 4.58813ZM 0.44795 5.31025L 2.97103 0.222128L 2.07513 -0.222128L -0.44795 4.866L 0.44795 5.31025ZM 2.523 0.5L 28.2628 0.50375L 28.2629 -0.49625L 2.52315 -0.5L 2.523 0.5ZM 27.8837 0.329694L 30.0914 2.89782L 30.8497 2.24593L 28.642 -0.322194L 27.8837 0.329694ZM 30.4672 2.07189L 26.7879 2.09689L 26.7947 3.09686L 30.474 3.07186L 30.4672 2.07189ZM 26.3952 2.29177L 24.4764 4.78302L 25.2686 5.39323L 27.1874 2.90198L 26.3952 2.29177Z"/>
<path id="path1_stroke" d="M 18.3283 4.16375L 18.3283 4.66375L 19.4584 4.66375L 18.6983 3.82744L 18.3283 4.16375ZM 0 4.16375L -0.455196 3.95688L -0.77645 4.66375L 0 4.66375L 0 4.16375ZM 1.89231 0L 1.89231 -0.5L 1.57033 -0.5L 1.43711 -0.206874L 1.89231 0ZM 14.5436 0L 14.9136 -0.336307L 14.7649 -0.5L 14.5436 -0.5L 14.5436 0ZM 18.3283 3.66375L 0 3.66375L 0 4.66375L 18.3283 4.66375L 18.3283 3.66375ZM 0.455196 4.37062L 2.3475 0.206874L 1.43711 -0.206874L -0.455196 3.95688L 0.455196 4.37062ZM 1.89231 0.5L 14.5436 0.5L 14.5436 -0.5L 1.89231 -0.5L 1.89231 0.5ZM 14.1736 0.336307L 17.9583 4.50006L 18.6983 3.82744L 14.9136 -0.336307L 14.1736 0.336307Z"/>
<path id="path2_stroke" d="M 35.5079 7.185L 35.5079 7.685L 35.7875 7.685L 35.9339 7.44678L 35.5079 7.185ZM 0 7.185L -0.44022 6.94792L -0.837169 7.685L 0 7.685L 0 7.185ZM 2.52308 2.5L 2.52308 2L 2.22445 2L 2.08286 2.26292L 2.52308 2.5ZM 29.9168 2.5L 29.9168 3L 30.1572 3L 30.3074 2.81212L 29.9168 2.5ZM 31.9144 0L 31.9144 -0.5L 31.6739 -0.5L 31.5238 -0.312123L 31.9144 0ZM 39.9233 0L 40.3493 0.261784L 40.8174 -0.5L 39.9233 -0.5L 39.9233 0ZM 35.5079 6.685L 0 6.685L 0 7.685L 35.5079 7.685L 35.5079 6.685ZM 0.44022 7.42208L 2.9633 2.73708L 2.08286 2.26292L -0.44022 6.94792L 0.44022 7.42208ZM 2.52308 3L 29.9168 3L 29.9168 2L 2.52308 2L 2.52308 3ZM 30.3074 2.81212L 32.305 0.312123L 31.5238 -0.312123L 29.5261 2.18788L 30.3074 2.81212ZM 31.9144 0.5L 39.9233 0.5L 39.9233 -0.5L 31.9144 -0.5L 31.9144 0.5ZM 39.4973 -0.261784L 35.0819 6.92322L 35.9339 7.44678L 40.3493 0.261784L 39.4973 -0.261784Z"/>
<path id="path3_fill" fill-rule="evenodd" d="M 0 0L 5.07202 0L 0 0Z"/>
<path id="path4_stroke" d="M 5.07265 -0.5L 0 -0.5L 0 0.5L 5.07265 0.5L 5.07265 -0.5Z"/>
<path id="path5_fill" fill-rule="evenodd" d="M 0 0L 5.07265 0L 0 0Z"/>
</defs>
</svg>
