<svg width="24" height="24" viewBox="0 0 24 24" version="1.1" xmlns="http://www.w3.org/2000/svg" xmlns:xlink="http://www.w3.org/1999/xlink">
<title>Page 1.svg</title>
<desc>Created using Figma</desc>
<g id="Canvas" transform="translate(-8663 -442)">
<g id="Page 1">
<g id="Fill 1">
<use xlink:href="#path0_fill" transform="translate(8674.48 443.516)" fill="#818FA4"/>
</g>
<g id="Group 4">
<mask id="mask0_outline" mask-type="alpha">
<g id="Clip 3">
<use xlink:href="#path1_fill" transform="translate(8666.99 442.107)" fill="#FFFFFF"/>
</g>
</mask>
<g id="Stroke 2" mask="url(#mask0_outline)">
<use xlink:href="#path2_stroke" transform="translate(8666.99 442.106)" fill="#818FA4"/>
</g>
</g>
<g id="Group 7">
<mask id="mask1_outline" mask-type="alpha">
<g id="Clip 6">
<use xlink:href="#path3_fill" transform="translate(8663.28 460.625)" fill="#FFFFFF"/>
</g>
</mask>
<g id="Stroke 5" mask="url(#mask1_outline)">
<use xlink:href="#path4_stroke" transform="translate(8663.28 460.625)" fill="#818FA4"/>
</g>
</g>
</g>
</g>
<defs>
<path id="path0_fill" fill-rule="evenodd" d="M 0 18L 1.04452 18L 1.04452 0L 0 0L 0 18Z"/>
<path id="path1_fill" fill-rule="evenodd" d="M 0.689062 17.9575C 0.125915 17.9483 -0.147594 17.5307 0.0804578 17.0147L 7.4015 0.403097C 7.51941 0.13471 7.68794 0 7.8622 0L 7.86324 0C 8.02654 0 8.19559 0.119226 8.33333 0.358194L 17.9312 17.0591C 18.0135 17.2023 18.0526 17.3378 18.0526 17.458L 18.0526 17.9575L 17.4233 17.9575C 17.8231 17.9512 18.0526 17.7493 18.0526 17.458L 0.689062 17.9575Z"/>
<path id="path2_stroke" d="M 7.40158 0.403463L 6.48654 9.9146e-05L 6.48652 0.00015981L 7.40158 0.403463ZM 8.33341 0.359076L 7.46631 0.857206L 7.4664 0.857359L 8.33341 0.359076ZM 17.9313 17.0595L 18.7987 16.5618L 18.7983 16.5612L 17.9313 17.0595ZM 0.0800192 17.0156L -0.835047 16.6123L -0.835168 16.6126L 0.0800192 17.0156ZM 8.31662 0.806826C 8.36432 0.698622 8.278 0.981344 7.89356 0.999279C 7.51482 1.01695 7.40497 0.750431 7.46631 0.857206L 9.20051 -0.139055C 8.9775 -0.527248 8.51652 -1.03196 7.80035 -0.998548C 7.07847 -0.96487 6.66841 -0.412471 6.48654 9.91469e-05L 8.31662 0.806826ZM 7.4664 0.857359L 17.0643 17.5577L 18.7983 16.5612L 9.20042 -0.139208L 7.4664 0.857359ZM 17.0639 17.5571C 17.1015 17.6226 16.9787 17.446 17.1284 17.1901C 17.2768 16.9363 17.4868 16.958 17.4038 16.958L 17.4038 18.958C 17.9 18.958 18.5162 18.7787 18.8548 18.1998C 19.1946 17.6188 19.046 16.9929 18.7987 16.5618L 17.0639 17.5571ZM 17.4038 16.958L 0.708193 16.958L 0.708193 18.958L 17.4038 18.958L 17.4038 16.958ZM 0.708193 16.958C 0.656265 16.958 0.803518 16.9471 0.923785 17.1275C 1.04688 17.312 0.979792 17.4536 0.995206 17.4186L -0.835168 16.6126C -1.04932 17.0989 -1.09058 17.7117 -0.740138 18.2371C -0.392524 18.7584 0.183599 18.958 0.708193 18.958L 0.708193 16.958ZM 0.995086 17.4189L 8.31665 0.806766L 6.48652 0.00015981L -0.835047 16.6123L 0.995086 17.4189Z"/>
<path id="path3_fill" fill-rule="evenodd" d="M 0 3.8963C 0.00259468 3.80995 0.0191943 3.71863 0.0511044 3.62411L 0.769539 1.4992C 0.951626 0.959334 1.56154 0.510302 2.14537 0.496366L 22.6758 0.00036606C 22.6798 0.00019186 22.6838 7.64546e-05 22.6877 0L 22.7303 1.17354e-13C 23.0547 0.00488099 23.2325 0.128465 23.2391 0.317688L 23.2391 0.339917C 23.2351 0.457236 23.1683 0.597757 23.0332 0.749785L 20.2988 3.82695C 19.9184 4.2543 19.1389 4.60114 18.5692 4.60114L 0.762757 4.60114C 0.306581 4.60114 0.0117015 4.3271 5.93149e-13 3.94405L 4.74519e-13 3.8963L 0 3.8963Z"/>
<path id="path4_stroke" d="M 0.769383 1.49874L 1.7168 1.81875L 1.71685 1.81861L 0.769383 1.49874ZM 2.14521 0.496418L 2.16909 1.49613L 2.16936 1.49613L 2.14521 0.496418ZM 22.6756 0.000417673L 22.6515 -0.999291L 22.6515 -0.999291L 22.6756 0.000417673ZM 23.0336 0.749321L 23.7811 1.41358L 23.7811 1.41352L 23.0336 0.749321ZM 20.2986 3.827L 21.046 4.49132L 21.0461 4.49126L 20.2986 3.827ZM 0.0514697 3.62416L 0.998841 3.9443L 0.998883 3.94417L 0.0514697 3.62416ZM 1.71685 1.81861C 1.76268 1.68283 2.00018 1.50017 2.16909 1.49613L 2.12133 -0.503297C 1.12363 -0.479461 0.140255 0.235943 -0.17808 1.17888L 1.71685 1.81861ZM 2.16936 1.49613L 22.6998 1.00013L 22.6515 -0.999291L 2.12106 -0.503291L 2.16936 1.49613ZM 22.6998 1.00013C 22.7557 0.998777 22.7291 1.009 22.6557 0.979504C 22.5749 0.94707 22.4117 0.852362 22.3104 0.639825C 22.2083 0.425516 22.2376 0.23483 22.2666 0.144644C 22.2925 0.063787 22.3209 0.0458968 22.286 0.0851244L 23.7811 1.41352C 24.0347 1.12811 24.4549 0.491042 24.116 -0.22028C 23.7819 -0.921788 23.0325 -1.00848 22.6515 -0.999291L 22.6998 1.00013ZM 22.2861 0.0850597L 19.5511 3.16274L 21.0461 4.49126L 23.7811 1.41358L 22.2861 0.0850597ZM 19.5512 3.16268C 19.363 3.37443 18.8559 3.60119 18.5696 3.60119L 18.5696 5.60119C 19.4216 5.60119 20.4746 5.13428 21.046 4.49132L 19.5512 3.16268ZM 18.5696 3.60119L 0.7626 3.60119L 0.7626 5.60119L 18.5696 5.60119L 18.5696 3.60119ZM 0.7626 3.60119C 0.730412 3.60119 0.836784 3.59689 0.931199 3.72648C 1.02727 3.85835 0.991757 3.96526 0.998841 3.9443L -0.895901 3.30402C -1.07143 3.82345 -1.03885 4.41887 -0.685303 4.90416C -0.33341 5.38717 0.219831 5.60119 0.7626 5.60119L 0.7626 3.60119ZM 0.998883 3.94417L 1.7168 1.81875L -0.178031 1.17873L -0.895944 3.30415L 0.998883 3.94417Z"/>
</defs>
</svg>
