<svg width="16" height="12" viewBox="0 0 11 7" version="1.1" xmlns="http://www.w3.org/2000/svg" xmlns:xlink="http://www.w3.org/1999/xlink">
<title>0$&#9;</title>
<desc>Created using Figma</desc>
<g id="Canvas" transform="translate(-8958 -265)">
<g id="chevron copy">
<use xlink:href="#path0_fill" transform="matrix(-6.12323e-17 -1 -1 6.12323e-17 8968.4 271.401)" fill="#48495B"/>
<use xlink:href="#path1_stroke" transform="matrix(-6.12323e-17 -1 -1 6.12323e-17 8968.4 271.401)" fill="#808FA3"/>
</g>
</g> 
<defs>
<path id="path0_fill" fill-rule="evenodd" d="M 5.27253 8.22393C 5.52866 8.47025 5.5367 8.87761 5.29039 9.1339C 5.16409 9.26518 4.99532 9.3313 4.82639 9.3313C 4.66583 9.3313 4.50527 9.27177 4.38042 9.15175L 0.197406 5.12963C 0.0712721 5.00832 0 4.84068 0 4.66563C 0 4.49075 0.0712721 4.32311 0.197406 4.2018L 4.38042 0.179671C 4.63655 -0.0666438 5.04407 -0.0587604 5.29039 0.19753C 5.5367 0.45382 5.52866 0.861181 5.27253 1.1075L 1.57201 4.66563L 5.27253 8.22393Z"/>
<path id="path1_stroke" d="M 5.27253 8.22393L 5.3765 8.11581L 5.3765 8.11581L 5.27253 8.22393ZM 5.29039 9.1339L 5.39849 9.23789L 5.39854 9.23784L 5.29039 9.1339ZM 4.38042 9.15175L 4.27645 9.25988L 4.27647 9.25989L 4.38042 9.15175ZM 0.197406 5.12963L 0.0934288 5.23774L 0.0934398 5.23775L 0.197406 5.12963ZM 0.197406 4.2018L 0.0934398 4.09368L 0.0934288 4.09369L 0.197406 4.2018ZM 4.38042 0.179671L 4.48439 0.287796L 4.4844 0.287789L 4.38042 0.179671ZM 5.27253 1.1075L 5.37649 1.21562L 5.3765 1.21561L 5.27253 1.1075ZM 1.57201 4.66563L 1.46804 4.55751L 1.35559 4.66563L 1.46804 4.77376L 1.57201 4.66563ZM 5.16855 8.33205C 5.36498 8.52095 5.37117 8.83338 5.18224 9.02996L 5.39854 9.23784C 5.70224 8.92184 5.69234 8.41954 5.3765 8.11581L 5.16855 8.33205ZM 5.18229 9.0299C 5.08543 9.13059 4.95623 9.1813 4.82639 9.1813L 4.82639 9.4813C 5.03441 9.4813 5.24276 9.39977 5.39849 9.23789L 5.18229 9.0299ZM 4.82639 9.1813C 4.70298 9.1813 4.58014 9.13568 4.48438 9.04362L 4.27647 9.25989C 4.43039 9.40786 4.62868 9.4813 4.82639 9.4813L 4.82639 9.1813ZM 4.48439 9.04363L 0.301372 5.0215L 0.0934398 5.23775L 4.27645 9.25988L 4.48439 9.04363ZM 0.301383 5.02151C 0.204696 4.92852 0.15 4.79994 0.15 4.66563L -0.15 4.66563C -0.15 4.88141 -0.0621522 5.08811 0.0934288 5.23774L 0.301383 5.02151ZM 0.15 4.66563C 0.15 4.53151 0.204682 4.40292 0.301383 4.30992L 0.0934288 4.09369C -0.0621378 4.2433 -0.15 4.44999 -0.15 4.66563L 0.15 4.66563ZM 0.301372 4.30993L 4.48439 0.287796L 4.27645 0.0715465L 0.0934398 4.09368L 0.301372 4.30993ZM 4.4844 0.287789C 4.68083 0.09888 4.99337 0.104954 5.18224 0.30147L 5.39854 0.0935892C 5.09477 -0.222474 4.59227 -0.232168 4.27645 0.0715543L 4.4844 0.287789ZM 5.18224 0.30147C 5.37117 0.498049 5.36498 0.81048 5.16855 0.999379L 5.3765 1.21561C 5.69234 0.911882 5.70224 0.40959 5.39854 0.0935892L 5.18224 0.30147ZM 5.16856 0.999371L 1.46804 4.55751L 1.67597 4.77376L 5.37649 1.21562L 5.16856 0.999371ZM 1.46804 4.77376L 5.16856 8.33205L 5.3765 8.11581L 1.67598 4.55751L 1.46804 4.77376Z"/>
</defs>
</svg>
