<svg width="26" height="26" viewBox="0 0 26 26" version="1.1" xmlns="http://www.w3.org/2000/svg" xmlns:xlink="http://www.w3.org/1999/xlink">
<title>logo.svg</title>
<desc>Created using Figma</desc>
<g id="Canvas" transform="translate(-7602 -20)">
<g id="logo">
<g id="Group 3">
<g id="Fill 1">
<use xlink:href="#path0_fill" transform="translate(7602.35 20.3666)" fill="#FFFFFF"/>
</g>
</g>
<g id="Fill 4">
<use xlink:href="#path1_fill" transform="translate(7626.16 28.16)" fill="#FFFFFF"/>
</g>

</g>
</g>
<defs>
<path id="path0_fill" fill-rule="evenodd" d="M 7.43671 24.9726C 3.53241 24.9726 0.757353 22.1934 0.0339074 19.448C -0.110318 18.9004 0.218825 18.3402 0.7692 18.1968C 1.31975 18.0534 1.88274 18.3807 2.02697 18.9282C 2.53725 20.8648 4.60663 22.923 7.43671 22.923C 9.94795 22.923 11.6809 21.3846 12.4683 19.8828C 11.7079 19.802 10.7077 19.6144 9.62044 19.1605C 8.64005 18.7513 8.00168 18.2167 7.43843 17.745C 6.90007 17.2942 6.43511 16.9047 5.67802 16.5887C 4.31697 16.0207 2.76423 15.7236 1.83647 15.5462C 1.02417 15.3908 0.72018 15.3327 0.453792 14.9553C 0.374382 14.8433 0.00171417 14.2426 0.595786 13.5982C 1.44139 12.6809 12.1204 0.659316 12.2282 0.53796L 12.2617 0.502092C 12.7288 0.0243558 13.3813 -0.125951 13.9643 0.109501C 14.5416 0.342733 14.9146 0.919705 14.9146 1.57935L 14.9199 14.3589C 14.9202 14.925 14.4592 15.3839 13.8902 15.3842L 13.8898 15.3842C 13.321 15.3842 12.8598 14.9256 12.8596 14.3598L 12.8548 2.92767C 10.7378 5.3102 5.56976 11.1248 3.23588 13.7356C 4.17558 13.9367 5.37334 14.2388 6.47521 14.6987C 7.52178 15.1356 8.18247 15.6889 8.76539 16.177C 9.28116 16.609 9.72672 16.9822 10.4177 17.2705C 11.8203 17.856 13.0808 17.8861 13.6192 17.8988C 13.9831 17.9075 14.3594 17.9165 14.673 18.2759L 14.6808 18.2847C 14.8659 18.4968 14.9521 18.7768 14.9186 19.0557L 14.906 19.1598C 14.616 20.5618 13.7581 21.9772 12.5525 23.0432C 11.5569 23.9234 9.86124 24.9726 7.43671 24.9726"/>
</defs>
</svg>
