<svg width="96" height="26" viewBox="0 0 96 26" version="1.1" xmlns="http://www.w3.org/2000/svg" xmlns:xlink="http://www.w3.org/1999/xlink">
<title>logo.svg</title>
<desc>Created using Figma</desc>
<g id="Canvas" transform="translate(-7602 -20)">
<g id="logo">
<g id="Group 3">
<g id="Fill 1">
<path class="path-logo--hover" transform="translate(7602.35 20.3666)" fill="#323C47" id="path0_fill" fill-rule="evenodd" d="M 7.43671 24.9726C 3.53241 24.9726 0.757353 22.1934 0.0339074 19.448C -0.110318 18.9004 0.218825 18.3402 0.7692 18.1968C 1.31975 18.0534 1.88274 18.3807 2.02697 18.9282C 2.53725 20.8648 4.60663 22.923 7.43671 22.923C 9.94795 22.923 11.6809 21.3846 12.4683 19.8828C 11.7079 19.802 10.7077 19.6144 9.62044 19.1605C 8.64005 18.7513 8.00168 18.2167 7.43843 17.745C 6.90007 17.2942 6.43511 16.9047 5.67802 16.5887C 4.31697 16.0207 2.76423 15.7236 1.83647 15.5462C 1.02417 15.3908 0.72018 15.3327 0.453792 14.9553C 0.374382 14.8433 0.00171417 14.2426 0.595786 13.5982C 1.44139 12.6809 12.1204 0.659316 12.2282 0.53796L 12.2617 0.502092C 12.7288 0.0243558 13.3813 -0.125951 13.9643 0.109501C 14.5416 0.342733 14.9146 0.919705 14.9146 1.57935L 14.9199 14.3589C 14.9202 14.925 14.4592 15.3839 13.8902 15.3842L 13.8898 15.3842C 13.321 15.3842 12.8598 14.9256 12.8596 14.3598L 12.8548 2.92767C 10.7378 5.3102 5.56976 11.1248 3.23588 13.7356C 4.17558 13.9367 5.37334 14.2388 6.47521 14.6987C 7.52178 15.1356 8.18247 15.6889 8.76539 16.177C 9.28116 16.609 9.72672 16.9822 10.4177 17.2705C 11.8203 17.856 13.0808 17.8861 13.6192 17.8988C 13.9831 17.9075 14.3594 17.9165 14.673 18.2759L 14.6808 18.2847C 14.8659 18.4968 14.9521 18.7768 14.9186 19.0557L 14.906 19.1598C 14.616 20.5618 13.7581 21.9772 12.5525 23.0432C 11.5569 23.9234 9.86124 24.9726 7.43671 24.9726Z"/>
</g>
</g>
<g id="Fill 4">
<path class="path-logo--hover" transform="translate(7626.16 28.16)" fill="#323C47" id="path1_fill" fill-rule="evenodd" d="M 7.17892 6.40849L 7.17892 6.40827C 6.80894 6.14561 6.39971 5.91546 5.96302 5.72425C 5.56458 5.54984 5.17781 5.38959 4.78726 5.23807C 4.46107 5.11996 4.124 4.99809 3.79982 4.86615C 3.48531 4.73819 3.22683 4.60592 3.00971 4.46204C 2.80782 4.32822 2.63928 4.17228 2.50865 3.9992C 2.42805 3.89225 2.39059 3.7654 2.39059 3.60006C 2.39059 3.38363 2.42494 3.21829 2.49876 3.0795C 2.58225 2.92245 2.69665 2.78742 2.84862 2.66654C 2.9967 2.54875 3.18392 2.45718 3.40493 2.39437C 3.65774 2.32259 3.94367 2.28609 4.25529 2.28609C 4.83662 2.28609 5.28631 2.42644 5.62995 2.71498C 5.82706 2.88043 6.11188 3.46171 6.23395 3.71044L 6.26086 3.76518C 6.50933 4.27015 7.08554 4.52717 7.63106 4.37632C 7.70077 4.35708 7.76769 4.32844 7.82995 4.29139C 8.30244 4.07407 8.55569 3.55428 8.43351 3.04654C 8.2195 2.15968 7.76692 1.43761 7.08787 0.90079C 6.33178 0.303028 5.40505 0 4.333 0C 3.77069 0 3.26096 0.072218 2.77513 0.220967C 2.26074 0.378453 1.81037 0.617116 1.43628 0.93054C 1.06663 1.23998 0.765904 1.61246 0.542001 2.0377C 0.315875 2.4668 0.201256 2.96138 0.201256 3.5075C 0.201256 4.07684 0.337221 4.57982 0.605481 5.00262C 0.846505 5.38218 1.16079 5.71551 1.53934 5.99321C 1.9141 6.2676 2.28053 6.47618 2.66018 6.63079C 2.95157 6.74935 3.29331 6.88659 3.61294 7.00371C 3.98236 7.15688 4.37125 7.3115 4.76324 7.46765C 5.08287 7.59473 5.40127 7.75575 5.7101 7.94564C 5.93879 8.08643 6.12411 8.25885 6.26108 8.45825C 6.3737 8.62182 6.43073 8.83825 6.43073 9.1018C 6.43073 9.34986 6.39004 9.55589 6.30632 9.73185C 6.22161 9.91013 6.09321 10.0724 5.914 10.2284C 5.74846 10.3724 5.52967 10.4923 5.26397 10.5841C 4.98992 10.6789 4.69042 10.7251 4.34846 10.7251C 3.96735 10.7251 3.64829 10.676 3.39948 10.579C 3.13144 10.4749 2.90999 10.3424 2.74145 10.1852C 2.56713 10.0225 2.43228 9.83227 2.34078 9.62015C 2.26063 9.43369 2.20504 9.25386 2.17091 9.07028C 2.11488 8.76858 1.93322 8.50226 1.6723 8.3398C 1.41349 8.17933 1.09653 8.13376 0.802035 8.21472C 0.258955 8.36469 -0.0790112 8.8962 0.0159305 9.45094C 0.0848579 9.85295 0.203257 10.238 0.367793 10.5954C 0.587694 11.0727 0.893308 11.4885 1.27641 11.8315C 1.67852 12.1914 2.13711 12.4591 2.63206 12.6244C 3.14434 12.8118 3.69554 12.9029 4.31744 12.9029C 4.93267 12.9029 5.50721 12.8101 6.01772 12.6299C 6.54902 12.4589 7.01539 12.2056 7.4036 11.8775C 7.79104 11.5497 8.10077 11.1485 8.32345 10.6847C 8.5409 10.2327 8.65108 9.72599 8.65108 9.17899C 8.65108 8.53179 8.49888 7.96544 8.19871 7.4963C 7.916 7.05425 7.57281 6.6883 7.17892 6.40849Z"/>
</g>
<g id="Fill 8">
<path class="path-logo--hover" transform="translate(7637.64 28.3764)" fill="#323C47" id="path2_fill" fill-rule="evenodd" d="M 6.56024 6.87686L 4.06641 6.87686L 5.30843 3.77336L 6.56024 6.87686ZM 6.36931 0.681924C 6.20155 0.267638 5.8031 0 5.35408 0L 5.22934 0C 4.77987 0 4.3812 0.26808 4.21377 0.68303L 0.0788022 10.9297C -0.0566066 11.2656 -0.0158061 11.6452 0.188085 11.945C 0.391866 12.2447 0.731277 12.4238 1.09604 12.4238C 1.54807 12.4238 1.9474 12.1538 2.11371 11.7354L 3.19165 9.02416L 7.407 9.02416L 8.48493 11.7354C 8.65113 12.1538 9.05091 12.4238 9.5035 12.4238C 9.86759 12.4238 10.2067 12.2447 10.4106 11.9445C 10.6142 11.644 10.6547 11.2642 10.5186 10.9284L 6.36931 0.681924Z"/>
</g>
<g id="Fill 12">
<path class="path-logo--hover" transform="translate(7651.53 28.3764)" fill="#323C47" id="path3_fill" fill-rule="evenodd" d="M 1.11051 0L 1.0945 0C 0.491051 0 0 0.488274 0 1.08858L 0 11.3352C 0 11.9356 0.491051 12.4238 1.11051 12.4238C 1.71396 12.4238 2.20501 11.9356 2.20501 11.3352L 2.20501 1.08858C 2.20501 0.488274 1.71396 0 1.11051 0Z"/>
</g>
<g id="Fill 16">
<path class="path-logo--hover" transform="translate(7657.57 28.3764)" fill="#323C47" id="path4_fill" fill-rule="evenodd" d="M 6.62525 10.2457L 2.20478 10.2457L 2.20478 1.08858C 2.20478 0.488163 1.71384 0 1.09439 0C 0.490829 0 0 0.488163 0 1.08858L 0 11.3352C 0 11.9356 0.490829 12.4238 1.09439 12.4238L 6.62525 12.4238C 7.22869 12.4238 7.71975 11.9351 7.71975 11.3346C 7.71975 10.7342 7.22869 10.2457 6.62525 10.2457Z"/>
</g>
<g id="Fill 20">
<path class="path-logo--hover" transform="translate(7668.13 28.4009)" fill="#323C47" id="path5_fill" fill-rule="evenodd" d="M 1.1104 0L 1.09428 0C 0.490829 0 0 0.488274 0 1.08869L 0 11.3352C 0 11.9356 0.490829 12.4238 1.1104 12.4238C 1.71384 12.4238 2.20478 11.9356 2.20478 11.3352L 2.20478 1.08869C 2.20478 0.488274 1.71384 0 1.1104 0Z"/>
</g>
<g id="Fill 24">
<path class="path-logo--hover" transform="translate(7673.64 28.3644)" fill="#323C47" id="path6_fill" fill-rule="evenodd" d="M 3.21001 3.23853C 3.53486 2.87678 3.89172 2.61367 4.30084 2.43407C 4.71707 2.25126 5.17444 2.16256 5.69918 2.16256C 6.40857 2.16256 7.04671 2.35754 7.59534 2.74207C 8.09307 3.09089 8.48728 3.57297 8.767 4.17471C 8.99312 4.66144 9.53187 4.91348 10.0657 4.77004C 10.3759 4.68654 10.6327 4.47298 10.7698 4.18356C 10.9073 3.89358 10.9102 3.55936 10.777 3.26695C 10.3318 2.28764 9.69885 1.50773 8.89629 0.948677C 7.99234 0.319286 6.92719 0 5.7303 0C 4.94364 0 4.17677 0.150076 3.43469 0.453105C 2.73753 0.755469 2.11907 1.21012 1.59622 1.8039C 1.09294 2.37634 0.696499 3.06158 0.4179 3.84105C 0.149305 4.59265 0.0086715 5.43615 0 6.35364C 0.0086715 7.25918 0.149305 8.09926 0.4179 8.85086C 0.696499 9.6301 1.09294 10.3156 1.59622 10.888C 2.11885 11.4821 2.7373 11.9364 3.45103 12.2455C 4.17688 12.5418 4.94387 12.6921 5.7303 12.6921C 6.92686 12.6921 7.99212 12.3728 8.89629 11.7434C 9.69907 11.1841 10.3321 10.404 10.7768 9.42495C 10.9102 9.13276 10.9073 8.79855 10.7698 8.50835C 10.6325 8.21903 10.3757 8.00514 10.0477 7.91711C 9.53176 7.77887 8.99301 8.03113 8.767 8.51719C 8.48728 9.11916 8.09318 9.60113 7.59546 9.94983C 7.04659 10.3345 6.40857 10.5297 5.69918 10.5297C 5.17444 10.5297 4.71707 10.4408 4.30084 10.2578C 3.89139 10.0782 3.53453 9.81513 3.21001 9.45337C 2.88572 9.09206 2.63113 8.65234 2.45303 8.14659C 2.26782 7.62039 2.17644 7.03169 2.17343 6.34955C 2.17644 5.66198 2.26782 5.07174 2.45303 4.54553C 2.63113 4.03979 2.88561 3.60017 3.21001 3.23853Z"/>
</g>
<g id="Fill 28">
<path class="path-logo--hover" transform="translate(7687.29 28.3661)" fill="#323C47" id="path7_fill" fill-rule="evenodd" d="M 6.56046 6.87686L 4.06641 6.87686L 5.30854 3.77347L 6.56046 6.87686ZM 10.5187 10.9284L 6.36914 0.681813C 6.20127 0.267527 5.80294 0 5.35402 0L 5.22928 0C 4.7797 0 4.38092 0.268191 4.21372 0.683141L 0.0788572 10.9295C -0.0566628 11.2655 -0.0157511 11.645 0.188029 11.945C 0.391698 12.2448 0.731221 12.4239 1.09609 12.4239C 1.54812 12.4239 1.94768 12.1539 2.11366 11.7355L 3.19159 9.02427L 7.40705 9.02427L 8.48487 11.7355C 8.65108 12.1536 9.05086 12.4239 9.50355 12.4239C 9.86765 12.4239 10.2067 12.2448 10.4106 11.9445C 10.6143 11.6441 10.6546 11.2644 10.5187 10.9284Z"/>
</g>
</g>
</g>

</svg>
