<svg width="19" height="11" viewBox="0 0 19 11" version="1.1" xmlns="http://www.w3.org/2000/svg" xmlns:xlink="http://www.w3.org/1999/xlink">
<title> &#232;t</title>
<desc>Created using Figma</desc>
<g id="Canvas" transform="translate(-8136 -277)">
<rect x="8136" y="277" width="19" height="11" fill="#FFFFFF"/>
 clip-path="url(#clip-0)"<g id="02e_catalog">
<path d="M 7573 -1L 9013 -1L 9013 1612L 7573 1612L 7573 -1Z" fill="#FFFFFF"/>
<g id="yacht in catalog">
<g id="Rectangle 5">
<use xlink:href="#path0_fill" transform="translate(7612 134)" fill="#FFFFFF"/>
<mask id="mask0_outline_ins">
<use xlink:href="#path0_fill" fill="white" transform="translate(7612 134)"/>
</mask>
<g mask="url(#mask0_outline_ins)">
<use xlink:href="#path1_stroke_2x" transform="translate(7612 134)" fill="#EBF1FA"/>
</g>
</g>
<g id="Group 11">
<g id="Rectangle 3 Copy 2">
<use xlink:href="#path2_fill" transform="translate(8136 281)" fill="#E1E8F4"/>
<mask id="mask1_outline_ins">
<use xlink:href="#path2_fill" fill="white" transform="translate(8136 281)"/>
</mask>
<g mask="url(#mask1_outline_ins)">
<use xlink:href="#path3_stroke_2x" transform="translate(8136 281)" fill="#62738D"/>
</g>
</g>
<g id="Rectangle 3 Copy 4">
<use xlink:href="#path4_fill" transform="translate(8136 277)" fill="#E1E8F4"/>
<mask id="mask2_outline_ins">
<use xlink:href="#path4_fill" fill="white" transform="translate(8136 277)"/>
</mask>
<g mask="url(#mask2_outline_ins)">
<use xlink:href="#path5_stroke_2x" transform="translate(8136 277)" fill="#62738D"/>
</g>
</g>
</g>
</g>
</g>
</g>
<defs>
<path id="path0_fill" fill-rule="evenodd" d="M 0 0L 981 0L 981 200L 0 200L 0 0Z"/>
<path id="path1_stroke_2x" d="M 0 0L 0 -1L -1 -1L -1 0L 0 0ZM 981 0L 982 0L 982 -1L 981 -1L 981 0ZM 981 200L 981 201L 982 201L 982 200L 981 200ZM 0 200L -1 200L -1 201L 0 201L 0 200ZM 0 1L 981 1L 981 -1L 0 -1L 0 1ZM 980 0L 980 200L 982 200L 982 0L 980 0ZM 981 199L 0 199L 0 201L 981 201L 981 199ZM 1 200L 1 0L -1 0L -1 200L 1 200Z"/>
<path id="path2_fill" fill-rule="evenodd" d="M 0 0L 17 0C 18.1046 0 19 0.895431 19 2L 19 5C 19 6.10457 18.1046 7 17 7L 2 7C 0.895431 7 0 6.10457 0 5L 0 0Z"/>
<path id="path3_stroke_2x" d="M 0 0L 0 -1L -1 -1L -1 0L 0 0ZM 0 1L 17 1L 17 -1L 0 -1L 0 1ZM 18 2L 18 5L 20 5L 20 2L 18 2ZM 17 6L 2 6L 2 8L 17 8L 17 6ZM 1 5L 1 0L -1 0L -1 5L 1 5ZM 17 1C 17.5523 1 18 1.44772 18 2L 20 2C 20 0.343146 18.6569 -1 17 -1L 17 1ZM 18 5C 18 5.55228 17.5523 6 17 6L 17 8C 18.6569 8 20 6.65685 20 5L 18 5ZM 2 6C 1.44772 6 1 5.55228 1 5L -1 5C -1 6.65685 0.343146 8 2 8L 2 6Z"/>
<path id="path4_fill" fill-rule="evenodd" d="M 0 4C 0 1.79086 1.79086 0 4 0C 6.20914 0 8 1.79086 8 4L 8 5L 0 5L 0 4Z"/>
<path id="path5_stroke_2x" d="M 8 5L 8 6L 9 6L 9 5L 8 5ZM 0 5L -1 5L -1 6L 0 6L 0 5ZM 7 4L 7 5L 9 5L 9 4L 7 4ZM 8 4L 0 4L 0 6L 8 6L 8 4ZM 1 5L 1 4L -1 4L -1 5L 1 5ZM 4 -1C 1.23858 -1 -1 1.23858 -1 4L 1 4C 1 2.34315 2.34315 1 4 1L 4 -1ZM 4 1C 5.65685 1 7 2.34315 7 4L 9 4C 9 1.23858 6.76142 -1 4 -1L 4 1Z"/>
</defs>
</svg>
