<svg width="13" height="13" viewBox="0 0 13 13" version="1.1" xmlns="http://www.w3.org/2000/svg" xmlns:xlink="http://www.w3.org/1999/xlink">
<title>&#232;&#229;\</title>
<desc>Created using Figma</desc>
<g id="Canvas" transform="translate(-7129 -108)">
<g id="boat-anchor">
<use xlink:href="#path0_fill" transform="translate(7130 109)" fill="#E1E8F4"/>
<use xlink:href="#path1_stroke" transform="translate(7130 109)" fill="#62738D"/>
</g>
</g>
<defs>
<path id="path0_fill" fill-rule="evenodd" d="M 10.8411 6.47255L 9.32536 4.98919C 9.29216 4.95638 9.2463 4.9372 9.1995 4.9372C 9.15238 4.9372 9.1081 4.95515 9.07458 4.98919L 7.55755 6.47255C 7.40322 6.62357 7.35768 6.85569 7.44022 7.05283C 7.52434 7.24966 7.72073 7.38274 7.93926 7.38274L 8.19763 7.38274C 7.96171 8.12859 7.40069 8.76087 6.67333 9.08861L 6.30142 2.72129C 6.72393 2.46009 7.00538 1.99834 7.00538 1.47345C 7.00538 0.65982 6.33115 0 5.49974 0C 4.66959 0 3.99504 0.658891 3.99504 1.47221C 3.99504 1.99834 4.2765 2.45761 4.699 2.71882L 4.32741 9.08861C 3.59973 8.76087 3.03871 8.12859 2.80153 7.38274L 3.0599 7.38274C 3.27843 7.38274 3.47608 7.24966 3.55894 7.05283C 3.64306 6.85569 3.5972 6.62605 3.44288 6.47471L 1.92585 4.99043C 1.89232 4.95762 1.84678 4.93843 1.80093 4.93843C 1.75286 4.93843 1.70827 4.95638 1.67506 4.98919L 0.158032 6.47255C 0.00370428 6.62357 -0.0421513 6.85569 0.040705 7.05283C 0.124826 7.24966 0.321215 7.38274 0.539741 7.38274L 0.743719 7.38274C 1.1365 9.594 3.11556 11.3082 5.49974 11.3082C 7.88391 11.3082 9.86393 9.594 10.2558 7.38274L 10.4594 7.38274C 10.6783 7.38274 10.8759 7.24966 10.9585 7.05283C 11.0426 6.85569 10.9967 6.62357 10.8411 6.47255Z"/>
<path id="path1_stroke" d="M 10.8411 6.47255L 10.5788 6.74056L 10.5799 6.74163L 10.8411 6.47255ZM 9.32536 4.98919L 9.06181 5.25596L 9.06308 5.2572L 9.32536 4.98919ZM 9.07458 4.98919L 9.3368 5.25736L 9.34178 5.2523L 9.07458 4.98919ZM 7.55755 6.47255L 7.29538 6.20442L 7.29526 6.20453L 7.55755 6.47255ZM 7.44022 7.05283L 7.09431 7.19766L 7.09539 7.2002L 7.44022 7.05283ZM 8.19763 7.38274L 8.55517 7.49583L 8.70956 7.00774L 8.19763 7.00774L 8.19763 7.38274ZM 6.67333 9.08861L 6.29896 9.11048L 6.33073 9.65429L 6.82738 9.43051L 6.67333 9.08861ZM 6.30142 2.72129L 6.10423 2.40233L 5.91402 2.51992L 5.92706 2.74316L 6.30142 2.72129ZM 4.699 2.71882L 5.07337 2.74065L 5.08639 2.51743L 4.8962 2.39985L 4.699 2.71882ZM 4.32741 9.08861L 4.17342 9.43053L 4.67006 9.65422L 4.70178 9.11045L 4.32741 9.08861ZM 2.80153 7.38274L 2.80153 7.00774L 2.28877 7.00774L 2.44416 7.49638L 2.80153 7.38274ZM 3.55894 7.05283L 3.21402 6.90565L 3.21331 6.90734L 3.55894 7.05283ZM 3.44288 6.47471L 3.70543 6.20696L 3.70513 6.20667L 3.44288 6.47471ZM 1.92585 4.99043L 1.66356 5.25844L 1.66359 5.25847L 1.92585 4.99043ZM 1.67506 4.98919L 1.93724 5.25732L 1.93861 5.25596L 1.67506 4.98919ZM 0.158032 6.47255L -0.10414 6.20442L -0.104252 6.20453L 0.158032 6.47255ZM 0.040705 7.05283L -0.305009 7.19813L -0.304123 7.2002L 0.040705 7.05283ZM 0.743719 7.38274L 1.11294 7.31715L 1.05798 7.00774L 0.743719 7.00774L 0.743719 7.38274ZM 10.2558 7.38274L 10.2558 7.00774L 9.94136 7.00774L 9.88651 7.31731L 10.2558 7.38274ZM 10.9585 7.05283L 10.6135 6.90565L 10.6126 6.90781L 10.9585 7.05283ZM 11.1034 6.20453L 9.58765 4.72117L 9.06308 5.2572L 10.5788 6.74056L 11.1034 6.20453ZM 9.58891 4.72242C 9.48679 4.62153 9.34674 4.5622 9.1995 4.5622L 9.1995 5.3122C 9.14586 5.3122 9.09752 5.29124 9.06181 5.25596L 9.58891 4.72242ZM 9.1995 4.5622C 9.0544 4.5622 8.91311 4.6187 8.80738 4.72608L 9.34178 5.2523C 9.3031 5.29159 9.25035 5.3122 9.1995 5.3122L 9.1995 4.5622ZM 8.81241 4.72107L 7.29538 6.20442L 7.81972 6.74067L 9.33675 5.25731L 8.81241 4.72107ZM 7.29526 6.20453C 7.03025 6.46388 6.95289 6.85988 7.09432 7.19765L 7.78613 6.908C 7.76247 6.8515 7.77619 6.78327 7.81983 6.74056L 7.29526 6.20453ZM 7.09539 7.2002C 7.2376 7.53293 7.56824 7.75774 7.93926 7.75774L 7.93926 7.00774C 7.87322 7.00774 7.81109 6.96639 7.78505 6.90546L 7.09539 7.2002ZM 7.93926 7.75774L 8.19763 7.75774L 8.19763 7.00774L 7.93926 7.00774L 7.93926 7.75774ZM 7.84009 7.26964C 7.63659 7.91302 7.15004 8.4625 6.51927 8.74672L 6.82738 9.43051C 7.65134 9.05924 8.28684 8.34416 8.55517 7.49583L 7.84009 7.26964ZM 7.04769 9.06675L 6.67578 2.69943L 5.92706 2.74316L 6.29896 9.11048L 7.04769 9.06675ZM 6.49861 3.04026C 7.02457 2.7151 7.38038 2.13639 7.38038 1.47345L 6.63038 1.47345C 6.63038 1.86028 6.42328 2.20508 6.10423 2.40233L 6.49861 3.04026ZM 7.38038 1.47345C 7.38038 0.445113 6.53057 -0.375 5.49974 -0.375L 5.49974 0.375C 6.13172 0.375 6.63038 0.874526 6.63038 1.47345L 7.38038 1.47345ZM 5.49974 -0.375C 4.47043 -0.375 3.62004 0.443931 3.62004 1.47221L 4.37004 1.47221C 4.37004 0.873851 4.86876 0.375 5.49974 0.375L 5.49974 -0.375ZM 3.62004 1.47221C 3.62004 2.13692 3.97632 2.71291 4.50181 3.03778L 4.8962 2.39985C 4.57668 2.20231 4.37004 1.85976 4.37004 1.47221L 3.62004 1.47221ZM 4.32464 2.69698L 3.95305 9.06677L 4.70178 9.11045L 5.07337 2.74065L 4.32464 2.69698ZM 4.48141 8.74669C 3.85041 8.46249 3.36364 7.91294 3.1589 7.26909L 2.44416 7.49638C 2.71379 8.34425 3.34906 9.05925 4.17342 9.43053L 4.48141 8.74669ZM 2.80153 7.75774L 3.0599 7.75774L 3.0599 7.00774L 2.80153 7.00774L 2.80153 7.75774ZM 3.0599 7.75774C 3.42953 7.75774 3.76325 7.53402 3.90456 7.19832L 3.21331 6.90734C 3.18891 6.96529 3.12732 7.00774 3.0599 7.00774L 3.0599 7.75774ZM 3.90385 7.2C 4.04904 6.85974 3.96922 6.46564 3.70543 6.20696L 3.18032 6.74246C 3.22518 6.78645 3.23708 6.85164 3.21403 6.90565L 3.90385 7.2ZM 3.70513 6.20667L 2.1881 4.72238L 1.66359 5.25847L 3.18062 6.74275L 3.70513 6.20667ZM 2.18813 4.72241C 2.08776 4.62419 1.94926 4.56343 1.80093 4.56343L 1.80093 5.31343C 1.7443 5.31343 1.69689 5.29106 1.66356 5.25844L 2.18813 4.72241ZM 1.80093 4.56343C 1.65774 4.56343 1.51739 4.61782 1.41151 4.72242L 1.93861 5.25596C 1.89914 5.29495 1.84798 5.31343 1.80093 5.31343L 1.80093 4.56343ZM 1.41289 4.72107L -0.10414 6.20442L 0.420205 6.74067L 1.93724 5.25731L 1.41289 4.72107ZM -0.104252 6.20453C -0.368947 6.46357 -0.447253 6.85967 -0.305003 7.19812L 0.386413 6.90753C 0.36295 6.85171 0.376356 6.78358 0.420316 6.74056L -0.104252 6.20453ZM -0.304123 7.2002C -0.161921 7.53293 0.168726 7.75774 0.539741 7.75774L 0.539741 7.00774C 0.473704 7.00774 0.411573 6.96639 0.385533 6.90546L -0.304123 7.2002ZM 0.539741 7.75774L 0.743719 7.75774L 0.743719 7.00774L 0.539741 7.00774L 0.539741 7.75774ZM 0.374499 7.44832C 0.799116 9.83884 2.93401 11.6832 5.49974 11.6832L 5.49974 10.9332C 3.29711 10.9332 1.47388 9.34916 1.11294 7.31715L 0.374499 7.44832ZM 5.49974 11.6832C 8.06534 11.6832 10.2014 9.83893 10.625 7.44817L 9.88651 7.31731C 9.52649 9.34906 7.70248 10.9332 5.49974 10.9332L 5.49974 11.6832ZM 10.2558 7.75774L 10.4594 7.75774L 10.4594 7.00774L 10.2558 7.00774L 10.2558 7.75774ZM 10.4594 7.75774C 10.8291 7.75774 11.1632 7.53418 11.3043 7.19785L 10.6126 6.90781C 10.5886 6.96514 10.5274 7.00774 10.4594 7.00774L 10.4594 7.75774ZM 11.3034 7.2C 11.4483 6.86029 11.3694 6.46267 11.1023 6.20346L 10.5799 6.74163C 10.6241 6.78448 10.6368 6.85108 10.6135 6.90565L 11.3034 7.2Z"/>
</defs>
</svg>
