<svg width="11" height="14" viewBox="0 0 11 14" version="1.1" xmlns="http://www.w3.org/2000/svg" xmlns:xlink="http://www.w3.org/1999/xlink">
<title>H9&#193;</title>
<desc>Created using Figma</desc>
<g id="Canvas" transform="translate(-7130 -138)">
<g id="user-silhouette">
<g id="Group 3">
<g id="Fill 1">
<use xlink:href="#path0_fill" transform="translate(7130 144.324)" fill="#E1E8F4"/>
<mask id="mask0_outline_ins">
<use xlink:href="#path0_fill" fill="white" transform="translate(7130 144.324)"/>
</mask>
<g mask="url(#mask0_outline_ins)">
<use xlink:href="#path1_stroke_2x" transform="translate(7130 144.324)" fill="#62738D"/>
</g>
</g>
</g>
<g id="Fill 4">
<use xlink:href="#path2_fill" transform="translate(7132 138)" fill="#E1E8F4"/>
<mask id="mask1_outline_ins">
<use xlink:href="#path2_fill" fill="white" transform="translate(7132 138)"/>
</mask>
<g mask="url(#mask1_outline_ins)">
<use xlink:href="#path3_stroke_2x" transform="translate(7132 138)" fill="#62738D"/>
</g>
</g>
</g>
</g>
<defs>
<path id="path0_fill" fill-rule="evenodd" d="M 10.3159 6.13804L 9.80195 2.29277C 9.62615 0.97422 8.45048 0 7.05516 0L 3.26821 0C 1.87328 0 0.697612 0.97422 0.521419 2.29277L 0.00785344 6.14557C -0.0277011 6.41456 0.0584199 6.75324 0.246859 6.9578C 0.435298 7.16086 0.706698 7.3447 0.99074 7.3447L 9.33303 7.3447C 9.61707 7.3447 9.88847 7.15634 10.0769 6.95328C 10.265 6.75022 10.3515 6.4074 10.3159 6.13804Z"/>
<path id="path1_stroke_2x" d="M 10.3159 6.13804L 11.3073 6.00718L 11.3071 6.00556L 10.3159 6.13804ZM 9.80195 2.29277L 8.81072 2.42493L 8.81077 2.42525L 9.80195 2.29277ZM 0.521419 2.29277L -0.46977 2.16032L -0.469813 2.16064L 0.521419 2.29277ZM 0.00785344 6.14557L -0.98338 6.01345L -0.983523 6.01453L 0.00785344 6.14557ZM 0.246859 6.9578L -0.488646 7.63533L -0.486139 7.63803L 0.246859 6.9578ZM 10.0769 6.95328L 10.8099 7.63351L 10.8106 7.63274L 10.0769 6.95328ZM 11.3071 6.00556L 10.7931 2.16029L 8.81077 2.42525L 9.32473 6.27052L 11.3071 6.00556ZM 10.7932 2.16061C 10.5455 0.302573 8.9074 -1 7.05516 -1L 7.05516 1C 7.99357 1 8.70685 1.64587 8.81072 2.42493L 10.7932 2.16061ZM 7.05516 -1L 3.26821 -1L 3.26821 1L 7.05516 1L 7.05516 -1ZM 3.26821 -1C 1.41621 -1 -0.22154 0.30267 -0.46977 2.16032L 1.51261 2.42522C 1.61676 1.64577 2.33036 1 3.26821 1L 3.26821 -1ZM -0.469813 2.16064L -0.983379 6.01345L 0.999086 6.2777L 1.51265 2.4249L -0.469813 2.16064ZM -0.983523 6.01453C -1.05175 6.53066 -0.908144 7.17993 -0.488641 7.63533L 0.982359 6.28028C 0.99243 6.29121 0.999194 6.30017 1.00334 6.30616C 1.00749 6.31216 1.00958 6.31599 1.01019 6.31716C 1.0111 6.31889 1.00865 6.31443 1.0057 6.30399C 1.00278 6.29368 1.00099 6.28317 1.0003 6.27478C 0.999977 6.27091 0.999997 6.26875 1 6.26851C 1.00001 6.26822 0.999981 6.27094 0.99923 6.27662L -0.983523 6.01453ZM -0.486139 7.63803C -0.219526 7.92533 0.299103 8.3447 0.99074 8.3447L 0.99074 6.3447C 1.02807 6.3447 1.05444 6.35077 1.06735 6.35463C 1.07971 6.35832 1.08141 6.36043 1.07298 6.35569C 1.06469 6.35103 1.05087 6.34213 1.03308 6.32767C 1.01542 6.31334 0.997182 6.29624 0.979857 6.27757L -0.486139 7.63803ZM 0.99074 8.3447L 9.33303 8.3447L 9.33303 6.3447L 0.99074 6.3447L 0.99074 8.3447ZM 9.33303 8.3447C 10.0321 8.3447 10.5515 7.91194 10.8099 7.63351L 9.34391 6.27305C 9.32532 6.29309 9.3059 6.31138 9.28719 6.32671C 9.26832 6.34218 9.25372 6.35173 9.24492 6.35676C 9.23596 6.36188 9.23781 6.35958 9.25097 6.35556C 9.26474 6.35137 9.29302 6.3447 9.33303 6.3447L 9.33303 8.3447ZM 10.8106 7.63274C 11.2335 7.17608 11.375 6.52029 11.3073 6.00718L 9.32451 6.2689C 9.32374 6.26308 9.32373 6.2604 9.32374 6.26091C 9.32375 6.26137 9.32376 6.26385 9.32341 6.26813C 9.32265 6.27738 9.32069 6.28881 9.31757 6.29992C 9.3161 6.30513 9.31469 6.30919 9.3136 6.31195C 9.31251 6.31473 9.31208 6.3154 9.31276 6.31408C 9.31344 6.3128 9.31571 6.30861 9.32024 6.30207C 9.32475 6.29555 9.33215 6.28575 9.3432 6.27382L 10.8106 7.63274Z"/>
<path id="path2_fill" fill-rule="evenodd" d="M 5.78289 2.93916C 5.78289 4.56232 4.48795 5.87872 2.89125 5.87872C 1.29494 5.87872 0 4.56232 0 2.93916C 0 1.31483 1.29494 0 2.89125 0C 4.48795 0 5.78289 1.31483 5.78289 2.93916Z"/>
<path id="path3_stroke_2x" d="M 4.78289 2.93916C 4.78289 4.02559 3.92023 4.87872 2.89125 4.87872L 2.89125 6.87872C 5.05566 6.87872 6.78289 5.09904 6.78289 2.93916L 4.78289 2.93916ZM 2.89125 4.87872C 1.86274 4.87872 1 4.02568 1 2.93916L -1 2.93916C -1 5.09896 0.727141 6.87872 2.89125 6.87872L 2.89125 4.87872ZM 1 2.93916C 1 1.8519 1.86231 1 2.89125 1L 2.89125 -1C 0.727574 -1 -1 0.777747 -1 2.93916L 1 2.93916ZM 2.89125 1C 3.92066 1 4.78289 1.85199 4.78289 2.93916L 6.78289 2.93916C 6.78289 0.777659 5.05523 -1 2.89125 -1L 2.89125 1Z"/>
</defs>
</svg>
