<svg width="16" height="8" viewBox="0 0 16 8" version="1.1" xmlns="http://www.w3.org/2000/svg" xmlns:xlink="http://www.w3.org/1999/xlink">
<title>x&#62;&#199;</title>
<desc>Created using Figma</desc>
<g id="Canvas" transform="translate(-7464 -112)">
<g id="Rectangle 5">
<use xlink:href="#path0_fill" transform="translate(7464 111)" fill="#E1E8F4"/>
<mask id="mask0_outline_ins">
<use xlink:href="#path0_fill" fill="white" transform="translate(7464 111)"/>
</mask>
<g mask="url(#mask0_outline_ins)">
<use xlink:href="#path1_stroke_2x" transform="translate(7464 111)" fill="#62738D"/>
</g>
</g>
</g>
<defs>
<path id="path0_fill" fill-rule="evenodd" d="M 5.25488 2.82816C 4.62988 1.79298 3.10449 1.46741 2.12207 2.44949L 0.586914 3.98502C -0.194336 4.76607 -0.194336 6.03239 0.586914 6.81345L 2.12207 8.34898C 3.14795 9.37469 4.7666 8.97397 5.33301 7.82816L 10.5977 7.82816C 11.1641 8.97397 12.7827 9.37469 13.8086 8.34898L 15.3438 6.81345C 16.125 6.03239 16.125 4.76607 15.3438 3.98502L 13.8086 2.44949C 12.8262 1.46741 11.3008 1.79298 10.6758 2.82816L 5.25488 2.82816Z"/>
<path id="path1_stroke_2x" d="M 5.25488 2.82816L 4.39881 3.34502L 4.69051 3.82816L 5.25488 3.82816L 5.25488 2.82816ZM 2.12207 2.44949L 1.41509 1.74225L 1.41488 1.74247L 2.12207 2.44949ZM 0.586914 3.98502L 1.29393 4.69221L 1.29411 4.69204L 0.586914 3.98502ZM 0.586914 6.81345L 1.29411 6.10643L 1.29393 6.10625L 0.586914 6.81345ZM 2.12207 8.34898L 1.41488 9.056L 1.41502 9.05614L 2.12207 8.34898ZM 5.33301 7.82816L 5.33301 6.82816L 4.71183 6.82816L 4.43656 7.38502L 5.33301 7.82816ZM 10.5977 7.82816L 11.4941 7.38502L 11.2188 6.82816L 10.5977 6.82816L 10.5977 7.82816ZM 13.8086 8.34898L 14.5156 9.05614L 14.5158 9.056L 13.8086 8.34898ZM 15.3438 6.81345L 14.6367 6.10625L 14.6366 6.10643L 15.3438 6.81345ZM 15.3438 3.98502L 14.6366 4.69204L 14.6367 4.69221L 15.3438 3.98502ZM 13.8086 2.44949L 14.5158 1.74247L 14.5156 1.74225L 13.8086 2.44949ZM 10.6758 2.82816L 10.6758 3.82816L 11.2402 3.82816L 11.5319 3.34502L 10.6758 2.82816ZM 6.11095 2.3113C 5.18293 0.77423 2.90038 0.257496 1.41509 1.74225L 2.82905 3.15672C 3.30861 2.67733 4.07684 2.81174 4.39881 3.34502L 6.11095 2.3113ZM 1.41488 1.74247L -0.120279 3.278L 1.29411 4.69204L 2.82926 3.15651L 1.41488 1.74247ZM -0.120103 3.27782C -1.292 4.44942 -1.292 6.34905 -0.120103 7.52064L 1.29393 6.10625C 0.903325 5.71574 0.903325 5.08272 1.29393 4.69221L -0.120103 3.27782ZM -0.120279 7.52047L 1.41488 9.056L 2.82926 7.64196L 1.29411 6.10643L -0.120279 7.52047ZM 1.41502 9.05614C 2.96554 10.6064 5.38568 9.97822 6.22946 8.27131L 4.43656 7.38502C 4.14752 7.96972 3.33035 8.14296 2.82912 7.64181L 1.41502 9.05614ZM 10.5977 6.82816L 5.33301 6.82816L 5.33301 8.82816L 10.5977 8.82816L 10.5977 6.82816ZM 13.1015 7.64181C 12.6003 8.14296 11.7831 7.96972 11.4941 7.38502L 9.70121 8.27131C 10.545 9.97822 12.9651 10.6064 14.5156 9.05614L 13.1015 7.64181ZM 14.6366 6.10643L 13.1014 7.64196L 14.5158 9.056L 16.0509 7.52047L 14.6366 6.10643ZM 14.6367 4.69221C 15.0273 5.08272 15.0273 5.71574 14.6367 6.10625L 16.0508 7.52064C 17.2227 6.34905 17.2227 4.44942 16.0508 3.27782L 14.6367 4.69221ZM 13.1014 3.15651L 14.6366 4.69204L 16.0509 3.278L 14.5158 1.74247L 13.1014 3.15651ZM 11.5319 3.34502C 11.8538 2.81174 12.6221 2.67733 13.1016 3.15672L 14.5156 1.74225C 13.0303 0.257496 10.7477 0.77423 9.81971 2.3113L 11.5319 3.34502ZM 5.25488 3.82816L 10.6758 3.82816L 10.6758 1.82816L 5.25488 1.82816L 5.25488 3.82816Z"/>
</defs>
</svg>
