<svg width="11" height="15" viewBox="0 0 11 15" version="1.1" xmlns="http://www.w3.org/2000/svg" xmlns:xlink="http://www.w3.org/1999/xlink">
<title>&#160;&#216;\</title>
<desc>Created using Figma</desc>
<g id="Canvas" transform="translate(-7271 -108)">
<g id="sailing">
<use xlink:href="#path0_fill" transform="matrix(1 2.44929e-16 -2.44929e-16 1 7271.53 108)" fill="#E1E8F4"/>
<mask id="mask0_outline_ins">
<use xlink:href="#path0_fill" fill="white" transform="matrix(1 2.44929e-16 -2.44929e-16 1 7271.53 108)"/>
</mask>
<g mask="url(#mask0_outline_ins)">
<use xlink:href="#path1_stroke_2x" transform="matrix(1 2.44929e-16 -2.44929e-16 1 7271.53 108)" fill="#62738D"/>
</g>
</g>
</g>
<defs>
<path id="path0_fill" fill-rule="evenodd" d="M 9.96421 12.351C 9.82771 12.2173 9.64761 12.1437 9.45688 12.1437C 9.25964 12.1437 9.07511 12.2216 8.93729 12.3632C 8.57607 12.7345 8.15429 12.8398 7.76129 12.8651C 7.72362 8.59573 6.73082 5.3785 6.13438 3.82529C 5.70742 2.71365 5.22626 1.76314 4.74257 1.0765C 4.23951 0.362146 3.78388 0 3.38884 0C 3.03778 0 2.73079 0.391481 2.36204 1.30909C 2.09078 1.9837 1.79884 2.92089 1.49423 4.09419C 0.92306 6.29375 0.449276 8.79288 0.275526 10.1304C 0.268718 10.1651 0.24716 10.2831 0.242281 10.4032C 0.21036 11.1801 0.65211 11.4606 1.02813 11.559C 1.02884 11.5592 1.02975 11.5592 1.03032 11.5593C 1.03947 11.5617 1.04878 11.5636 1.05838 11.5648C 1.05869 11.5648 1.05899 11.5648 1.05929 11.5649L 6.05136 12.2089L 6.05136 12.8722L 0.726126 12.8722C 0.325752 12.8722 0 13.1991 0 13.6008L 0 14.0866C 0 14.2207 0.108433 14.3296 0.241979 14.3296L 7.52048 14.3296C 7.89956 14.3296 9.05356 14.3296 9.97631 13.3813C 10.1119 13.2421 10.1852 13.0583 10.183 12.8637C 10.1807 12.669 10.1029 12.487 9.96421 12.351Z"/>
<path id="path1_stroke_2x" d="M 9.96421 12.351L 10.6641 11.6368L 10.664 11.6367L 9.96421 12.351ZM 8.93729 12.3632L 8.22081 11.6656L 8.2205 11.6659L 8.93729 12.3632ZM 7.76129 12.8651L 6.76133 12.874L 6.77065 13.9311L 7.82566 13.8631L 7.76129 12.8651ZM 6.13438 3.82529L 7.06792 3.46681L 7.06789 3.46674L 6.13438 3.82529ZM 4.74257 1.0765L 3.92496 1.65227L 3.92504 1.65239L 4.74257 1.0765ZM 2.36204 1.30909L 3.28984 1.68214L 3.28991 1.68197L 2.36204 1.30909ZM 1.49423 4.09419L 2.46213 4.34553L 2.46215 4.34548L 1.49423 4.09419ZM 0.275526 10.1304L 1.2568 10.323L 1.26303 10.2913L 1.26719 10.2592L 0.275526 10.1304ZM 0.242281 10.4032L 1.24144 10.4443L 1.24146 10.4438L 0.242281 10.4032ZM 1.02813 11.559L 0.774866 12.5264L 0.798026 12.5325L 0.821449 12.5374L 1.02813 11.559ZM 1.03032 11.5593L 0.771832 12.5254L 0.78135 12.5278L 1.03032 11.5593ZM 1.05838 11.5648L 0.936831 12.5574L 0.997381 12.5648L 1.05838 12.5648L 1.05838 11.5648ZM 1.05929 11.5649L 0.610869 12.4588L 0.762787 12.535L 0.931355 12.5567L 1.05929 11.5649ZM 6.05136 12.2089L 7.05136 12.2089L 7.05136 11.3296L 6.1793 11.2171L 6.05136 12.2089ZM 6.05136 12.8722L 6.05136 13.8722L 7.05136 13.8722L 7.05136 12.8722L 6.05136 12.8722ZM 9.97631 13.3813L 9.26008 12.6834L 9.25962 12.6839L 9.97631 13.3813ZM 10.183 12.8637L 11.1829 12.8522L 11.1829 12.8516L 10.183 12.8637ZM 10.664 11.6367C 10.3412 11.3204 9.91003 11.1437 9.45688 11.1437L 9.45688 13.1437C 9.38519 13.1437 9.31426 13.1142 9.26437 13.0653L 10.664 11.6367ZM 9.45688 11.1437C 8.98919 11.1437 8.54646 11.3311 8.22081 11.6656L 9.65378 13.0608C 9.60377 13.1121 9.53009 13.1437 9.45688 13.1437L 9.45688 11.1437ZM 8.2205 11.6659C 8.14771 11.7407 8.07767 11.7819 8.00595 11.8091C 7.92796 11.8388 7.82964 11.8587 7.69692 11.8672L 7.82566 13.8631C 8.30817 13.8279 9.07458 13.6014 9.65408 13.0605L 8.2205 11.6659ZM 8.76125 12.8563C 8.71177 8.44227 7.67589 5.05164 7.06792 3.46681L 5.20084 4.18377C 5.78574 5.70536 6.73546 8.74919 6.76133 12.874L 8.76125 12.8563ZM 7.06789 3.46674C 6.62146 2.30803 6.08338 1.24802 5.56009 0.500608L 3.92504 1.65239C 4.36914 2.27826 4.79338 3.11927 5.20087 4.18383L 7.06789 3.46674ZM 5.56017 0.500723C 5.27451 0.0978944 4.93846 -0.276367 4.64756 -0.512364C 4.32433 -0.769365 3.89681 -1 3.38884 -1L 3.38884 1C 3.27591 1 3.27372 0.950438 3.40284 1.0531C 3.5269 1.15175 3.70356 1.33788 3.92496 1.65227L 5.56017 0.500723ZM 3.38884 -1C 2.78087 -1 2.35772 -0.641383 2.09523 -0.306704C 1.87389 -0.0173068 1.63716 0.434032 1.43416 0.936202L 3.28991 1.68197C 3.46482 1.24675 3.59165 1.02611 3.66892 0.927586C 3.70322 0.883854 3.70022 0.900435 3.65183 0.92987C 3.5929 0.965714 3.49984 1 3.38884 1L 3.38884 -1ZM 1.43423 0.93603C 1.14874 1.6482 0.837235 2.64646 0.52632 3.84291L 2.46215 4.34548C 2.76045 3.19532 3.03282 2.31921 3.28984 1.68214L 1.43423 0.93603ZM 0.526334 3.84285C -0.0526825 6.07483 -0.538226 8.63527 -0.716142 10.0016L 1.26719 10.2592C 1.43678 8.95048 1.8988 6.51267 2.46213 4.34553L 0.526334 3.84285ZM -0.705752 9.93783C -0.713804 9.97896 -0.746725 10.1727 -0.756894 10.3626L 1.24146 10.4438C 1.24214 10.427 1.24451 10.4021 1.24849 10.3737C 1.25226 10.3468 1.25602 10.327 1.2568 10.323L -0.705752 9.93783ZM -0.756876 10.3621C -0.781338 10.9575 -0.622601 11.482 -0.277947 11.8852C 0.0314898 12.2119 0.501941 12.4509 0.774866 12.5264L 1.28139 10.5916C 1.21577 10.5744 1.22049 10.5602 1.2424 10.5858C 1.25446 10.5999 1.25615 10.6089 1.25328 10.5997C 1.24962 10.5879 1.23745 10.5414 1.24144 10.4443L -0.756876 10.3621ZM 0.821449 12.5374C 0.861 12.5458 0.892723 12.5499 0.908109 12.5518C 0.916602 12.5528 0.923403 12.5536 0.927108 12.5539C 0.93021 12.5542 0.933596 12.5546 0.932057 12.5544C 0.931912 12.5544 0.927779 12.554 0.922594 12.5535C 0.917245 12.5529 0.908007 12.5518 0.896526 12.5503C 0.885142 12.5488 0.868757 12.5464 0.84913 12.5428C 0.829762 12.5392 0.80313 12.5337 0.771844 12.5253L 1.2888 10.5933C 1.25737 10.5849 1.23058 10.5794 1.21105 10.5758C 1.19127 10.5721 1.17471 10.5697 1.16315 10.5682C 1.1515 10.5666 1.14207 10.5655 1.13654 10.5649C 1.13217 10.5645 1.12719 10.564 1.1265 10.5639C 1.1219 10.5635 1.13515 10.5647 1.14928 10.5664C 1.16427 10.5682 1.19561 10.5723 1.2348 10.5806L 0.821449 12.5374ZM 0.78135 12.5278C 0.813101 12.5357 0.886035 12.5503 0.936831 12.5574L 1.17994 10.5722C 1.22412 10.5776 1.25865 10.5855 1.27929 10.5908L 0.78135 12.5278ZM 1.05838 12.5648C 1.08441 12.5648 0.851616 12.5795 0.610869 12.4588L 1.50771 10.6711C 1.26636 10.55 1.03297 10.5648 1.05838 10.5648L 1.05838 12.5648ZM 0.931355 12.5567L 5.92343 13.2007L 6.1793 11.2171L 1.18723 10.5731L 0.931355 12.5567ZM 5.05136 12.2089L 5.05136 12.8722L 7.05136 12.8722L 7.05136 12.2089L 5.05136 12.2089ZM 6.05136 11.8722L 0.726126 11.8722L 0.726126 13.8722L 6.05136 13.8722L 6.05136 11.8722ZM 0.726126 11.8722C -0.229711 11.8722 -1 12.65 -1 13.6008L 1 13.6008C 1 13.7482 0.881216 13.8722 0.726126 13.8722L 0.726126 11.8722ZM -1 13.6008L -1 14.0866L 1 14.0866L 1 13.6008L -1 13.6008ZM -1 14.0866C -1 14.7692 -0.44764 15.3296 0.241979 15.3296L 0.241979 13.3296C 0.664506 13.3296 1 13.6723 1 14.0866L -1 14.0866ZM 0.241979 15.3296L 7.52048 15.3296L 7.52048 13.3296L 0.241979 13.3296L 0.241979 15.3296ZM 7.52048 15.3296C 7.92897 15.3296 9.46279 15.3429 10.693 14.0787L 9.25962 12.6839C 8.64432 13.3162 7.87015 13.3296 7.52048 13.3296L 7.52048 15.3296ZM 10.6925 14.0791C 11.0136 13.7497 11.1882 13.3105 11.1829 12.8522L 9.18307 12.8751C 9.18228 12.8061 9.21031 12.7345 9.26008 12.6834L 10.6925 14.0791ZM 11.1829 12.8516C 11.1774 12.393 10.9922 11.9582 10.6641 11.6368L 9.26433 13.0653C 9.21371 13.0157 9.18391 12.9451 9.18308 12.8757L 11.1829 12.8516Z"/>
</defs>
</svg>
